<svg width="25" height="23" viewBox="0 0 25 23" fill="none" xmlns="http://www.w3.org/2000/svg">
<path d="M10.0962 10.9843C12.1773 13.1291 14.2095 15.221 16.2394 17.3153C16.4229 17.4937 16.5949 17.6843 16.7542 17.886C16.9381 18.1281 17.0306 18.4309 17.0145 18.7381C16.9984 19.0453 16.8748 19.3361 16.6666 19.5563C16.4584 19.7765 16.1798 19.9113 15.8825 19.9356C15.5853 19.9599 15.2896 19.872 15.0504 19.6883C14.9116 19.5795 14.7819 19.4589 14.6626 19.3279C12.3427 16.9352 10.0244 14.5421 7.70767 12.1486C6.8715 11.2859 6.875 10.6719 7.71699 9.80202C10.0617 7.3789 12.4079 4.95779 14.7557 2.53868C15.246 2.03403 15.7771 1.9283 16.2825 2.22027C16.7658 2.49903 17.0511 2.94841 16.9277 3.51073C16.8301 3.87172 16.6416 4.19963 16.3815 4.46115C14.4622 6.47254 12.5209 8.46229 10.5877 10.4593C10.4386 10.6095 10.2954 10.7693 10.0962 10.9843Z" fill="#666666"/>
</svg>
