<svg width="21" height="17" viewBox="0 0 21 17" fill="none" xmlns="http://www.w3.org/2000/svg">
<path d="M2.00532 16.8086C1.45386 16.8086 0.981774 16.6128 0.589064 16.2211C0.196355 15.8294 0 15.3586 0 14.8086V2.80859C0 2.25859 0.196355 1.78776 0.589064 1.39609C0.981774 1.00443 1.45386 0.808594 2.00532 0.808594H18.0479C18.5994 0.808594 19.0715 1.00443 19.4642 1.39609C19.8569 1.78776 20.0532 2.25859 20.0532 2.80859V14.8086C20.0532 15.3586 19.8569 15.8294 19.4642 16.2211C19.0715 16.6128 18.5994 16.8086 18.0479 16.8086H2.00532ZM10.0266 9.80859L2.00532 4.80859V14.8086H18.0479V4.80859L10.0266 9.80859ZM10.0266 7.80859L18.0479 2.80859H2.00532L10.0266 7.80859ZM2.00532 4.80859V2.80859V14.8086V4.80859Z" fill="white"/>
</svg>
