<svg width="70" height="70" viewBox="0 0 70 70" fill="none" xmlns="http://www.w3.org/2000/svg">
<mask id="mask0_716_6896" style="mask-type:luminance" maskUnits="userSpaceOnUse" x="0" y="0" width="70" height="70">
<path d="M0 0H70V70H0V0Z" fill="white"/>
</mask>
<g mask="url(#mask0_716_6896)">
<path d="M62.6921 36.6501L57.7582 39.4987C57.6107 39.5838 57.4222 39.5333 57.337 39.3858L48.4524 23.9974C48.3674 23.8499 48.4179 23.6615 48.5652 23.5763L53.4993 20.7277" stroke="#CC1C19" stroke-width="2.05078" stroke-miterlimit="10" stroke-linecap="round" stroke-linejoin="round"/>
<path d="M39.8107 29.5607L36.6102 27.7128C36.2096 27.4815 35.7159 27.4815 35.3152 27.7128L28.9247 31.4014C27.3465 32.3125 25.3284 31.7717 24.4173 30.1935C23.5062 28.6153 24.0468 26.5972 25.6251 25.6861L32.3629 21.7961C34.0898 20.799 36.2172 20.799 37.9441 21.7961L42.4669 24.4072C44.1677 25.3892 46.2632 25.3893 47.9642 24.4077L48.5087 24.0942L57.2819 39.29" stroke="#CC1C19" stroke-width="2.05078" stroke-miterlimit="10" stroke-linecap="round" stroke-linejoin="round"/>
<path d="M56.2206 39.0352L44.082 32.027" stroke="#CC1C19" stroke-width="2.05078" stroke-miterlimit="10" stroke-linecap="round" stroke-linejoin="round"/>
<path d="M17.4667 44.5261L20.4005 42.8323C21.9786 41.9211 22.5195 39.9031 21.6082 38.3248C20.697 36.7467 18.679 36.206 17.1007 37.1171L14.167 38.8109C12.5888 39.722 12.048 41.7401 12.9593 43.3183C13.8705 44.8965 15.8886 45.4374 17.4667 44.5261Z" stroke="#CC1C19" stroke-width="2.05078" stroke-miterlimit="10" stroke-linecap="round" stroke-linejoin="round"/>
<path d="M21.2763 49.946L23.0191 48.9399C24.5972 48.0287 25.1379 46.0106 24.2268 44.4324C23.3156 42.8541 21.2975 42.3134 19.7192 43.2246L17.9766 44.2308C16.3983 45.142 15.8576 47.1601 16.7688 48.7382C17.6801 50.3165 19.6982 50.8572 21.2763 49.946Z" stroke="#CC1C19" stroke-width="2.05078" stroke-miterlimit="10" stroke-linecap="round" stroke-linejoin="round"/>
<path d="M26.3964 54.6111L27.9691 53.703C29.5474 52.7919 30.0881 50.7738 29.1769 49.1957C28.2656 47.6174 26.2477 47.0766 24.6694 47.9879L23.0967 48.8958C21.5184 49.8071 20.9777 51.8252 21.8889 53.4033C22.8 54.9815 24.8181 55.5223 26.3964 54.6111Z" stroke="#CC1C19" stroke-width="2.05078" stroke-miterlimit="10" stroke-linecap="round" stroke-linejoin="round"/>
<path d="M32.8769 58.1169L33.7691 57.6018C35.3473 56.6906 35.888 54.6726 34.9769 53.0943C34.0657 51.5162 32.0477 50.9754 30.4694 51.8865L29.5772 52.4017C27.9989 53.3129 27.4582 55.331 28.3694 56.9092C29.2806 58.4873 31.2988 59.0282 32.8769 58.1169Z" stroke="#CC1C19" stroke-width="2.05078" stroke-miterlimit="10" stroke-linecap="round" stroke-linejoin="round"/>
<path d="M39.1797 52.0568L40.9469 53.0771" stroke="#CC1C19" stroke-width="2.05078" stroke-miterlimit="10" stroke-linecap="round" stroke-linejoin="round"/>
<path d="M42.4785 46.3417L47.3974 49.1816" stroke="#CC1C19" stroke-width="2.05078" stroke-miterlimit="10" stroke-linecap="round" stroke-linejoin="round"/>
<path d="M45.7783 40.6267L53.0976 44.8525" stroke="#CC1C19" stroke-width="2.05078" stroke-miterlimit="10" stroke-linecap="round" stroke-linejoin="round"/>
<path d="M7.30762 36.6501L12.2415 39.4987C12.389 39.5838 12.5776 39.5333 12.6628 39.3858L21.5473 23.9974C21.6323 23.8499 21.5819 23.6615 21.4345 23.5763L16.5004 20.7277" stroke="#CC1C19" stroke-width="2.05078" stroke-miterlimit="10" stroke-linecap="round" stroke-linejoin="round"/>
<path d="M34.5332 56.9946L37.5823 58.7549C39.1844 59.6799 41.2911 59.1481 42.1855 57.5288C43.0526 55.959 42.5061 53.9774 40.9464 53.0768L44.0337 54.8594C45.6357 55.7843 47.7424 55.2524 48.6368 53.6331C49.5039 52.0635 48.9574 50.0817 47.3978 49.1812L49.8986 50.6251C51.5647 51.587 53.6317 50.9662 54.4921 49.2454L54.4973 49.2349C55.2603 47.7091 54.6757 45.7628 53.1983 44.9098L53.0978 44.8518C54.6761 45.7629 56.6941 45.2222 57.6053 43.6441C58.4184 42.0179 57.7954 39.9436 56.2209 39.0346" stroke="#CC1C19" stroke-width="2.05078" stroke-miterlimit="10" stroke-linecap="round" stroke-linejoin="round"/>
<path d="M7.82524 14.572L1.32439 10.8187C1.1915 10.742 1.02539 10.8379 1.02539 10.9913V34.0539C1.02539 34.1251 1.0634 34.1909 1.12506 34.2264L6.54404 37.3551C6.69156 37.4403 6.8801 37.3898 6.96514 37.2423L16.8427 20.1341C16.9277 19.9866 16.8771 19.7981 16.7297 19.713L12.0563 17.0148" stroke="#CC1C19" stroke-width="2.05078" stroke-miterlimit="10" stroke-linecap="round" stroke-linejoin="round"/>
<path d="M60.9787 33.6824L63.034 37.2423C63.119 37.3897 63.3077 37.4403 63.4551 37.3551L68.8741 34.2264C68.9357 34.1909 68.9737 34.125 68.9737 34.0538V10.9914C68.9737 10.838 68.8076 10.742 68.6747 10.8187L53.2694 19.7129C53.122 19.7981 53.0714 19.9866 53.1566 20.1342L58.5389 29.4566" stroke="#CC1C19" stroke-width="2.05078" stroke-miterlimit="10" stroke-linecap="round" stroke-linejoin="round"/>
<path d="M25.9046 25.5244C24.5815 25.4913 23.28 25.1257 22.122 24.4575L21.4912 24.0939" stroke="#CC1C19" stroke-width="2.05078" stroke-miterlimit="10" stroke-linecap="round" stroke-linejoin="round"/>
</g>
</svg>
