<svg width="16" height="15" viewBox="0 0 16 15" fill="none" xmlns="http://www.w3.org/2000/svg">
<path d="M7.57054 3.65419C5.42273 3.65419 3.69029 5.37125 3.69029 7.5C3.69029 9.62875 5.42273 11.3458 7.57054 11.3458C9.71836 11.3458 11.4508 9.62875 11.4508 7.5C11.4508 5.37125 9.71836 3.65419 7.57054 3.65419ZM7.57054 10.0003C6.18257 10.0003 5.04787 8.879 5.04787 7.5C5.04787 6.121 6.17919 4.99972 7.57054 4.99972C8.9619 4.99972 10.0932 6.121 10.0932 7.5C10.0932 8.879 8.95852 10.0003 7.57054 10.0003ZM12.5146 3.49688C12.5146 3.99559 12.1093 4.3939 11.6095 4.3939C11.1063 4.3939 10.7045 3.99225 10.7045 3.49688C10.7045 3.00151 11.1097 2.59985 11.6095 2.59985C12.1093 2.59985 12.5146 3.00151 12.5146 3.49688ZM15.0845 4.40729C15.0271 3.20568 14.7502 2.1413 13.862 1.26436C12.9772 0.387426 11.9033 0.112964 10.691 0.0527167C9.44144 -0.0175722 5.69627 -0.0175722 4.44675 0.0527167C3.23776 0.109617 2.16386 0.384079 1.27569 1.26102C0.387519 2.13796 0.113976 3.20233 0.0531888 4.40394C-0.0177296 5.64236 -0.0177296 9.35429 0.0531888 10.5927C0.110599 11.7943 0.387519 12.8587 1.27569 13.7356C2.16386 14.6126 3.23439 14.887 4.44675 14.9473C5.69627 15.0176 9.44144 15.0176 10.691 14.9473C11.9033 14.8904 12.9772 14.6159 13.862 13.7356C14.7468 12.8587 15.0237 11.7943 15.0845 10.5927C15.1554 9.35429 15.1554 5.64571 15.0845 4.40729ZM13.4703 11.9215C13.2069 12.5775 12.6969 13.083 12.0317 13.3474C11.0354 13.739 8.67147 13.6486 7.57054 13.6486C6.46962 13.6486 4.10229 13.7356 3.10944 13.3474C2.44753 13.0863 1.93759 12.5809 1.6708 11.9215C1.27569 10.9341 1.36687 8.59115 1.36687 7.5C1.36687 6.40885 1.27906 4.06254 1.6708 3.07849C1.93422 2.42246 2.44415 1.91705 3.10944 1.65263C4.10567 1.26102 6.46962 1.35139 7.57054 1.35139C8.67147 1.35139 11.0388 1.26436 12.0317 1.65263C12.6936 1.9137 13.2035 2.41911 13.4703 3.07849C13.8654 4.06588 13.7742 6.40885 13.7742 7.5C13.7742 8.59115 13.8654 10.9375 13.4703 11.9215Z" fill="white"/>
</svg>
