<svg width="28" height="20" viewBox="0 0 28 20" fill="none" xmlns="http://www.w3.org/2000/svg">
<path opacity="0.5" d="M4.3396 8.75255C4.69143 8.75255 4.91425 8.75255 5.13708 8.75255C11.9743 8.75255 18.8115 8.75255 25.6605 8.75255C25.8599 8.75255 26.0475 8.74082 26.2469 8.75255C27.0209 8.81119 27.5135 9.29202 27.5252 10.0074C27.5369 10.7111 27.0326 11.2271 26.2703 11.274C26.0944 11.2857 25.9185 11.274 25.7426 11.274C18.8819 11.274 12.0212 11.274 5.16053 11.274C4.93771 11.274 4.70315 11.274 4.35132 11.274C4.57415 11.5085 4.70315 11.6727 4.84389 11.8135C6.83759 13.8072 8.81957 15.7891 10.8133 17.7829C11.2824 18.2637 11.3879 18.8149 11.1182 19.3309C10.8485 19.8352 10.4028 20.0815 9.8516 19.9759C9.57014 19.9173 9.25349 19.7531 9.05412 19.5537C6.18084 16.7039 3.31929 13.8424 0.45774 10.9691C-0.152099 10.3592 -0.152099 9.66731 0.45774 9.05747C3.33102 6.17246 6.2043 3.29919 9.07757 0.437638C9.6405 -0.125291 10.4028 -0.137018 10.9071 0.355544C11.4466 0.883288 11.4231 1.62213 10.825 2.22024C8.84302 4.21394 6.84932 6.20765 4.85561 8.18962C4.71488 8.34208 4.57415 8.49454 4.3396 8.75255Z" fill="#556275"/>
</svg>
