<svg width="15" height="18" viewBox="0 0 15 18" fill="none" xmlns="http://www.w3.org/2000/svg">
<path d="M7.21917 9C7.71549 9 8.14036 8.82375 8.4938 8.47125C8.84724 8.11875 9.02396 7.695 9.02396 7.2C9.02396 6.705 8.84724 6.28125 8.4938 5.92875C8.14036 5.57625 7.71549 5.4 7.21917 5.4C6.72285 5.4 6.29797 5.57625 5.94453 5.92875C5.5911 6.28125 5.41438 6.705 5.41438 7.2C5.41438 7.695 5.5911 8.11875 5.94453 8.47125C6.29797 8.82375 6.72285 9 7.21917 9ZM7.21917 15.615C9.05404 13.935 10.4152 12.4087 11.3025 11.0362C12.1899 9.66375 12.6335 8.445 12.6335 7.38C12.6335 5.745 12.1109 4.40625 11.0656 3.36375C10.0204 2.32125 8.7382 1.8 7.21917 1.8C5.70014 1.8 4.41798 2.32125 3.37271 3.36375C2.32743 4.40625 1.80479 5.745 1.80479 7.38C1.80479 8.445 2.24847 9.66375 3.13583 11.0362C4.02318 12.4087 5.3843 13.935 7.21917 15.615ZM7.21917 18C4.79774 15.945 2.98919 14.0362 1.79351 12.2737C0.597837 10.5112 0 8.88 0 7.38C0 5.13 0.725677 3.3375 2.17703 2.0025C3.62838 0.6675 5.3091 0 7.21917 0C9.12924 0 10.81 0.6675 12.2613 2.0025C13.7127 3.3375 14.4383 5.13 14.4383 7.38C14.4383 8.88 13.8405 10.5112 12.6448 12.2737C11.4492 14.0362 9.6406 15.945 7.21917 18Z" fill="white"/>
</svg>
