<svg width="71" height="60" viewBox="0 0 71 60" fill="none" xmlns="http://www.w3.org/2000/svg">
<g opacity="0.2">
<path d="M64.5814 0.20348C64.5814 4.91278 64.5814 9.62208 64.5814 14.5639C63.2213 14.5639 61.8884 14.5639 60.5555 14.5639C59.4674 14.5639 58.3794 14.5349 57.2913 14.593C54.6527 14.7384 52.5037 16.8605 52.1501 19.6802C52.0957 20.0581 52.0957 20.4651 52.0957 20.843C52.0957 22.5291 52.0957 24.2151 52.0957 26.0756C58.2161 26.0756 64.2006 26.0756 70.2666 26.0756C70.2666 37.4709 70.2666 48.6919 70.2666 60C59.7123 60 49.1851 60 38.4948 60C38.4948 59.4477 38.4948 58.9244 38.4948 58.4012C38.4948 45.9012 38.4948 33.4012 38.4948 20.9302C38.4948 10.2616 45.0232 1.86046 54.8431 0.290689C57.9713 -0.232566 61.2356 0.203481 64.5814 0.20348Z" fill="#556275"/>
<path d="M26.7438 -3.27847e-06C26.7438 4.94186 26.7438 9.65116 26.7438 14.5349C24.5948 14.5349 22.5275 14.5349 20.4601 14.5349C16.4887 14.564 14.3125 16.8605 14.3125 21.0756C14.3125 22.6744 14.3125 24.2442 14.3125 26.0465C20.4057 26.0465 26.4174 26.0465 32.4834 26.0465C32.4834 37.4419 32.4834 48.6628 32.4834 60C21.9291 60 11.4019 60 0.711557 60C0.711557 59.4477 0.711557 58.9244 0.711557 58.4302C0.711556 45.9302 0.711555 33.4302 0.711554 20.9593C0.711553 8.98256 8.95373 0.116278 20.1337 0.0290653C22.2827 -2.86169e-06 24.4588 -3.065e-06 26.7438 -3.27847e-06Z" fill="#556275"/>
</g>
</svg>
