<svg width="74" height="74" viewBox="0 0 74 74" fill="none" xmlns="http://www.w3.org/2000/svg">
<path d="M54.6968 39.0547C53.4722 37.8394 53.4722 35.9045 54.6968 34.6865L56.6175 32.7788C57.6294 31.7727 57.828 30.2397 57.0994 29.0272L54.1725 24.1404C53.4453 22.9266 51.9685 22.3249 50.5579 22.6671L47.8804 23.3148C46.1752 23.7275 44.4363 22.7608 43.9557 21.1301L43.2018 18.5733C42.8016 17.2249 41.5234 16.2949 40.0706 16.2949H34.2125C32.7596 16.2949 31.4787 17.225 31.0799 18.5733L30.3274 21.1301C29.8455 22.7608 28.1079 23.7275 26.4013 23.3148L23.7238 22.6671C22.3146 22.3249 20.8364 22.9264 20.1106 24.1404L17.1837 29.0272C16.4537 30.2397 16.6525 31.7727 17.6643 32.7788L19.5865 34.6865C20.8096 35.9045 20.8096 37.8394 19.5865 39.0547L17.6643 40.9651C16.6525 41.9712 16.4539 43.5042 17.1837 44.7167L20.1106 49.6035C20.8364 50.8173 22.3146 51.419 23.7238 51.0767L26.4013 50.4275C28.1079 50.0161 29.8454 50.9828 30.3274 52.6137L31.0799 55.1705C31.4787 56.5187 32.7596 57.4488 34.2125 57.4488H40.0706C41.5235 57.4488 42.8016 56.5187 43.2018 55.1705L43.9557 52.6137C44.4363 50.983 46.1752 50.0161 47.8804 50.4275L50.5579 51.0767C51.9685 51.4188 53.4453 50.8173 54.1725 49.6035L57.0994 44.7167C57.828 43.5042 57.6292 41.9712 56.6175 40.9651L54.6968 39.0547Z" stroke="#CC1C19" stroke-width="2.85135" stroke-miterlimit="10" stroke-linecap="round" stroke-linejoin="round"/>
<path d="M44.5477 30.9468C42.8001 28.7675 40.132 27.3203 37.141 27.3203C31.8768 27.3203 27.6094 31.7994 27.6094 36.8715C27.6094 41.9437 31.8768 46.4226 37.141 46.4226C40.1632 46.4226 42.8549 44.9448 44.6012 42.7276" stroke="#CC1C19" stroke-width="2.85135" stroke-miterlimit="10" stroke-linecap="round" stroke-linejoin="round"/>
<path d="M33.1631 37.3141L35.7044 39.8607L40.7869 34.7676" stroke="#CC1C19" stroke-width="2.85135" stroke-miterlimit="10" stroke-linecap="round" stroke-linejoin="round"/>
<path d="M42.3423 64.5996L39.3652 69.0812L43.7847 71.9999" stroke="#CC1C19" stroke-width="2.85135" stroke-miterlimit="10" stroke-linecap="round" stroke-linejoin="round"/>
<path d="M29.0098 2L33.3294 4.91507L30.2113 9.29931" stroke="#CC1C19" stroke-width="2.85135" stroke-miterlimit="10" stroke-linecap="round" stroke-linejoin="round"/>
<path d="M5.39258 32.3532C7.37832 18.2242 18.5341 7.04533 32.6342 5.05566" stroke="#CC1C19" stroke-width="2.85135" stroke-miterlimit="10" stroke-linecap="round" stroke-linejoin="round"/>
<path d="M41.6523 5.05566C55.7524 7.04533 66.9082 18.2242 68.8938 32.3532" stroke="#CC1C19" stroke-width="2.85135" stroke-miterlimit="10" stroke-linecap="round" stroke-linejoin="round"/>
<path d="M32.6342 68.6872C18.5341 66.6974 7.37832 55.5186 5.39258 41.3896" stroke="#CC1C19" stroke-width="2.85135" stroke-miterlimit="10" stroke-linecap="round" stroke-linejoin="round"/>
<path d="M68.8938 41.3896C66.9082 55.5186 55.7524 66.6974 41.6523 68.687" stroke="#CC1C19" stroke-width="2.85135" stroke-miterlimit="10" stroke-linecap="round" stroke-linejoin="round"/>
<path d="M9.52794 42.1385L5.05551 39.1553L2 43.5837" stroke="#CC1C19" stroke-width="2.85135" stroke-miterlimit="10" stroke-linecap="round" stroke-linejoin="round"/>
<path d="M72.0004 28.7793L69.0913 33.1078L64.5732 29.9833" stroke="#CC1C19" stroke-width="2.85135" stroke-miterlimit="10" stroke-linecap="round" stroke-linejoin="round"/>
<ellipse cx="46.6728" cy="36.871" rx="1.42275" ry="1.42567" fill="#CC1C19"/>
</svg>
