<svg width="19" height="19" viewBox="0 0 19 19" fill="none" xmlns="http://www.w3.org/2000/svg">
<path d="M16.9951 18.8086C14.9062 18.8086 12.8424 18.3544 10.8037 17.4461C8.76494 16.5378 6.91002 15.2503 5.23891 13.5836C3.56781 11.9169 2.27688 10.0669 1.36613 8.03359C0.455376 6.00026 0 3.94193 0 1.85859C0 1.55859 0.100266 1.30859 0.300799 1.10859C0.501331 0.908594 0.751997 0.808594 1.0528 0.808594H5.11358C5.34753 0.808594 5.55642 0.88776 5.74024 1.04609C5.92406 1.20443 6.03269 1.39193 6.06611 1.60859L6.71784 5.10859C6.75126 5.37526 6.74291 5.60026 6.69277 5.78359C6.64264 5.96693 6.55073 6.12526 6.41704 6.25859L3.98558 8.70859C4.3198 9.32526 4.71669 9.92109 5.17624 10.4961C5.6358 11.0711 6.14131 11.6253 6.69277 12.1586C7.21081 12.6753 7.75392 13.1544 8.3221 13.5961C8.89027 14.0378 9.49187 14.4419 10.1269 14.8086L12.4831 12.4586C12.6335 12.3086 12.8299 12.1961 13.0722 12.1211C13.3145 12.0461 13.5527 12.0253 13.7866 12.0586L17.2458 12.7586C17.4797 12.8253 17.6719 12.9461 17.8223 13.1211C17.9727 13.2961 18.0479 13.4919 18.0479 13.7086V17.7586C18.0479 18.0586 17.9477 18.3086 17.7471 18.5086C17.5466 18.7086 17.2959 18.8086 16.9951 18.8086ZM3.03305 6.80859L4.68745 5.15859L4.26132 2.80859H2.03039C2.11395 3.49193 2.23092 4.16693 2.38132 4.83359C2.53172 5.50026 2.74897 6.15859 3.03305 6.80859ZM12.0069 15.7586C12.6586 16.0419 13.3229 16.2669 13.9997 16.4336C14.6765 16.6003 15.3574 16.7086 16.0426 16.7586V14.5586L13.6863 14.0836L12.0069 15.7586Z" fill="white"/>
</svg>
